<svg xmlns="http://www.w3.org/2000/svg" xmlns:xlink="http://www.w3.org/1999/xlink" viewBox="0,0,256,256" width="50px" height="50px" fill-rule="nonzero"><g fill="#ff0000" fill-rule="nonzero" stroke="none" stroke-width="1" stroke-linecap="butt" stroke-linejoin="miter" stroke-miterlimit="10" stroke-dasharray="" stroke-dashoffset="0" font-family="none" font-weight="none" font-size="none" text-anchor="none" style="mix-blend-mode: normal"><g transform="scale(5.12,5.12)"><path d="M5.98828,18c-3.016,0 -5.96775,2.49334 -5.96875,6.15234c0,3.624 2.95275,6.11523 5.96875,6.11523c0.523,0 1.04988,-0.07489 1.54688,-0.21289c0.592,1.05 1.38005,1.94531 2.87305,1.94531c2.464,0 2.6438,-2.434 2.5918,-3h-0.78711c-0.046,0.425 -0.53589,1 -1.21289,1c-0.62,0 -0.84825,-0.39636 -1.28125,-1.06836c1.34,-1.074 2.25977,-2.73625 2.25977,-4.78125c0,-3.676 -2.92323,-6.15039 -5.99023,-6.15039zM5.98828,19.2207c2.298,0 3.2832,1.67169 3.2832,4.92969c0,1.305 -0.16472,2.35772 -0.51172,3.13672c-0.584,-0.913 -1.31991,-1.62695 -2.75391,-1.62695c-0.921,0 -1.63803,0.31303 -2.08203,0.70703l0.36328,0.75391c0.187,-0.089 0.39266,-0.12305 0.59766,-0.12305c1.072,0 1.62184,0.96492 2.08984,1.91992c-0.3,0.09 -0.62733,0.13086 -0.98633,0.13086c-2.265,0 -3.24414,-1.65744 -3.24414,-4.89844c0,-3.258 0.97914,-4.92969 3.24414,-4.92969zM39.10352,20.83398c-0.967,0 -1.99586,0.68161 -2.38086,1.97461h-0.07031l-0.17578,-1.79883h-3.45312v1.09961h0.49023c0.559,0 0.80273,0.20964 0.80273,0.68164v4.78711c0,0.786 -0.08709,1.04883 -0.99609,1.04883h-0.36719v1.10156h5.41211v-1.10156h-0.50781c-0.891,0 -1.08398,-0.26283 -1.08398,-1.04883v-3.23242c0,-0.798 0.44367,-1.33984 1.01367,-1.33984c0.641,0 0.79336,0.52539 1.56836,0.52539c0.862,0 1.16992,-0.68227 1.16992,-1.32227c0,-0.92 -0.62387,-1.375 -1.42187,-1.375zM27.87109,20.87891c-2.476,0 -4.60742,1.79881 -4.60742,4.50781c0,2.76 2.18442,4.61328 4.60742,4.61328c2.58,0 4.64844,-1.85328 4.64844,-4.61328c0,-2.674 -2.06844,-4.50781 -4.64844,-4.50781zM12.84766,21v1.11328h0.57617c0.542,0 0.7168,0.21245 0.7168,0.68945v4.19141c0,2.246 1.18883,3.00586 2.67383,3.00586c1.322,0 2.24725,-0.54833 2.90625,-1.36133h0.07031v1.18359l3.40234,-0.54883v-1.14844h-0.12305c-0.699,0 -0.92578,-0.28234 -0.92578,-0.90234v-6.22266h-3.80469v1.11328h0.61133c0.541,0 0.7168,0.21245 0.7168,0.68945v4.59766c-0.362,0.684 -1.03117,0.98438 -1.70117,0.98438c-0.816,0 -1.35156,-0.44136 -1.35156,-1.44336v-5.94141zM44.82227,21.01172c-2.405,0 -3.6875,0.86745 -3.6875,1.93945c0,0.53 0.30398,1.00195 1.08398,1.00195c1.625,0 0.82094,-1.89844 2.58594,-1.89844c0.629,0 1.19922,0.22773 1.19922,1.67773v0.20313c-1.165,1.886 -5.13086,1.12956 -5.13086,3.97656c0,1.415 0.97819,2.2207 2.49219,2.2207c1.30326,0 2.23712,-0.58776 2.69141,-1.46094h0.07031c0.088,0.798 0.74497,1.28516 1.79297,1.28516c1.206,0 1.84108,-0.64667 2.08008,-1.01367l-0.29297,-0.70898c-0.134,0.094 -0.30758,0.15234 -0.51758,0.15234c-0.489,0 -0.69336,-0.30428 -0.69336,-0.86328v-3.61719c0,-2.266 -1.39683,-2.89453 -3.67383,-2.89453zM27.87109,21.98047c1.339,0 1.901,1.11025 1.875,3.40625c-0.026,2.346 -0.535,3.51172 -1.875,3.51172c-1.183,0 -1.9043,-1.16372 -1.9043,-3.51172c0,-2.295 0.7343,-3.40625 1.9043,-3.40625zM46.00391,25.1875v1.40039c0,1.048 -0.45369,2.08984 -1.55469,2.08984c-0.687,0 -1.11914,-0.41458 -1.11914,-1.14258c0,-1.485 1.87083,-1.51466 2.67383,-2.34766z"></path></g></g></svg>